<?xml version="1.0" encoding="UTF-8"?>
<svg id="Camada_2" data-name="Camada 2" xmlns="http://www.w3.org/2000/svg" viewBox="0 0 25.98 25.08">
  <defs>
    <style>
      .cls-1 {
        fill: #9f9275;
      }
    </style>
  </defs>
  <path class="cls-1" d="M12.99,1c6.61,0,11.99,5.38,11.99,11.99,0,2.37-.68,4.6-1.89,6.48.21-.82.31-1.67.31-2.53,0-5.74-4.67-10.42-10.42-10.42S2.57,11.2,2.57,16.95c0,.86.11,1.71.31,2.53-1.21-1.89-1.89-4.12-1.89-6.48C1,6.38,6.38,1,12.99,1M12.99,0C5.82,0,0,5.82,0,12.99c0,5.5,3.42,10.2,8.25,12.09-2.8-1.63-4.68-4.66-4.68-8.13,0-5.2,4.22-9.42,9.42-9.42s9.42,4.22,9.42,9.42c0,3.47-1.88,6.51-4.68,8.13,4.83-1.89,8.25-6.59,8.25-12.09C25.98,5.82,20.16,0,12.99,0h0Z"/>
  <path class="cls-1" d="M12.99,11.06c3.81,0,6.9,3.1,6.9,6.9,0,1.03-.22,2.01-.63,2.9.02-.19.03-.38.03-.57,0-3.47-2.83-6.3-6.3-6.3s-6.3,2.83-6.3,6.3c0,.19,0,.38.03.57-.41-.89-.63-1.87-.63-2.9,0-3.81,3.1-6.9,6.9-6.9M12.99,10.31c-4.22,0-7.65,3.43-7.65,7.65,0,3.24,2.02,6.01,4.86,7.12-1.65-.96-2.76-2.75-2.76-4.79,0-3.06,2.48-5.55,5.55-5.55s5.55,2.48,5.55,5.55c0,2.05-1.11,3.83-2.76,4.79,2.84-1.11,4.86-3.88,4.86-7.12,0-4.22-3.43-7.65-7.65-7.65h0Z"/>
  <path class="cls-1" d="M12.99,17.9c1.92,0,3.48,1.56,3.48,3.48,0,.3-.04.6-.11.88-.17-1.71-1.61-3.05-3.37-3.05s-3.2,1.34-3.37,3.05c-.07-.28-.11-.58-.11-.88,0-1.92,1.56-3.48,3.48-3.48M12.99,17.4c-2.2,0-3.98,1.78-3.98,3.98,0,1.68,1.05,3.12,2.53,3.7-.86-.5-1.43-1.43-1.43-2.49,0-1.59,1.29-2.88,2.88-2.88s2.88,1.29,2.88,2.88c0,1.06-.57,1.99-1.43,2.49,1.48-.58,2.53-2.02,2.53-3.7,0-2.2-1.78-3.98-3.98-3.98h0Z"/>
  <polygon class="cls-1" points="12.99 24.2 11.87 25.01 12.3 23.7 11.18 22.88 12.56 22.88 12.99 21.57 13.42 22.88 14.8 22.88 13.68 23.7 14.11 25.01 12.99 24.2"/>
</svg>