<?xml version="1.0" encoding="UTF-8"?>
<svg id="Camada_2" data-name="Camada 2" xmlns="http://www.w3.org/2000/svg" viewBox="0 0 48 46.34">
  <defs>
    <style>
      .cls-1 {
        fill: #9f9275;
      }
    </style>
  </defs>
  <g>
    <path class="cls-1" d="M10.96,43.56C4.48,39.28.5,32.03.5,24,.5,11.04,11.04.5,24,.5s23.5,10.54,23.5,23.5c0,8.03-3.98,15.28-10.46,19.56,3.07-3.28,4.86-7.65,4.86-12.25,0-9.87-8.03-17.9-17.9-17.9S6.1,21.44,6.1,31.31c0,4.6,1.79,8.98,4.86,12.25Z"/>
    <path class="cls-1" d="M24,1c12.68,0,23,10.32,23,23,0,6.53-2.69,12.53-7.23,16.78,1.69-2.82,2.63-6.08,2.63-9.47,0-10.15-8.25-18.4-18.4-18.4S5.6,21.16,5.6,31.31c0,3.38.94,6.65,2.63,9.47C3.69,36.53,1,30.53,1,24,1,11.32,11.32,1,24,1M24,0C10.75,0,0,10.75,0,24c0,10.16,6.32,18.85,15.24,22.34-5.17-3.01-8.64-8.61-8.64-15.03,0-9.61,7.79-17.4,17.4-17.4s17.4,7.79,17.4,17.4c0,6.42-3.47,12.02-8.64,15.03,8.92-3.49,15.24-12.18,15.24-22.34C48,10.75,37.25,0,24,0h0Z"/>
  </g>
  <g>
    <path class="cls-1" d="M32.34,43.56c1.01-1.58,1.58-3.43,1.58-5.36,0-5.47-4.45-9.92-9.92-9.92s-9.92,4.45-9.92,9.92c0,1.92.57,3.78,1.58,5.36-2.6-2.32-4.15-5.66-4.15-9.31,0-6.89,5.6-12.49,12.49-12.49s12.49,5.6,12.49,12.49c0,3.65-1.55,7-4.15,9.31Z"/>
    <path class="cls-1" d="M24,22.26c6.61,0,11.99,5.38,11.99,11.99,0,2.37-.68,4.6-1.89,6.48.21-.82.31-1.67.31-2.53,0-5.74-4.67-10.42-10.42-10.42s-10.42,4.67-10.42,10.42c0,.86.11,1.71.31,2.53-1.21-1.89-1.89-4.12-1.89-6.48,0-6.61,5.38-11.99,11.99-11.99M24,21.26c-7.17,0-12.99,5.82-12.99,12.99,0,5.5,3.42,10.2,8.25,12.09-2.8-1.63-4.68-4.66-4.68-8.13,0-5.2,4.22-9.42,9.42-9.42s9.42,4.22,9.42,9.42c0,3.47-1.88,6.51-4.68,8.13,4.83-1.89,8.25-6.59,8.25-12.09,0-7.17-5.82-12.99-12.99-12.99h0Z"/>
  </g>
  <g>
    <path class="cls-1" d="M29.71,43.54c.22-.63.34-1.31.34-2,0-3.33-2.71-6.05-6.05-6.05s-6.05,2.71-6.05,6.05c0,.69.12,1.36.34,2-.92-1.21-1.45-2.72-1.45-4.33,0-3.94,3.21-7.15,7.15-7.15s7.15,3.21,7.15,7.15c0,1.61-.53,3.12-1.45,4.33Z"/>
    <path class="cls-1" d="M24,32.56c3.67,0,6.65,2.98,6.65,6.65,0,.5-.06,1-.16,1.47-.42-3.21-3.17-5.69-6.49-5.69s-6.07,2.48-6.49,5.69c-.11-.47-.16-.97-.16-1.47,0-3.67,2.98-6.65,6.65-6.65M24,31.56c-4.22,0-7.65,3.43-7.65,7.65,0,3.24,2.02,6.01,4.86,7.12-1.65-.96-2.76-2.75-2.76-4.79,0-3.06,2.48-5.55,5.55-5.55s5.55,2.48,5.55,5.55c0,2.05-1.11,3.83-2.76,4.79,2.84-1.11,4.86-3.88,4.86-7.12,0-4.22-3.43-7.65-7.65-7.65h0Z"/>
  </g>
  <polygon class="cls-1" points="24 19.49 22.88 20.31 23.31 18.99 22.19 18.18 23.57 18.18 24 16.86 24.43 18.18 25.81 18.18 24.69 18.99 25.12 20.31 24 19.49"/>
  <g>
    <path class="cls-1" d="M27.37,43.52c-.17-1.71-1.61-3.05-3.37-3.05s-3.19,1.33-3.37,3.04c-.07-.28-.11-.57-.11-.87,0-1.92,1.56-3.48,3.48-3.48s3.48,1.56,3.48,3.48c0,.3-.04.6-.11.88Z"/>
    <path class="cls-1" d="M24,39.66c.89,0,1.69.39,2.24,1.02-.63-.45-1.41-.71-2.24-.71s-1.61.26-2.24.71c.55-.62,1.35-1.02,2.24-1.02M24,38.66c-2.2,0-3.98,1.78-3.98,3.98,0,1.68,1.05,3.12,2.53,3.7-.86-.5-1.43-1.43-1.43-2.49,0-1.59,1.29-2.88,2.88-2.88s2.88,1.29,2.88,2.88c0,1.06-.57,1.99-1.43,2.49,1.48-.58,2.53-2.02,2.53-3.7,0-2.2-1.78-3.98-3.98-3.98h0Z"/>
  </g>
  <polygon class="cls-1" points="24 45.46 22.88 46.27 23.31 44.95 22.19 44.14 23.57 44.14 24 42.82 24.43 44.14 25.81 44.14 24.69 44.95 25.12 46.27 24 45.46"/>
</svg>