<?xml version="1.0" encoding="UTF-8"?>
<svg id="Camada_1" data-name="Camada 1" xmlns="http://www.w3.org/2000/svg" viewBox="0 0 64 64">
  <defs>
    <style>
      .cls-1, .cls-2 {
        fill: #1d1d1b;
      }

      .cls-3 {
        fill: #fff;
      }

      .cls-2 {
        stroke: #1d1d1b;
        stroke-miterlimit: 10;
        stroke-width: .02px;
      }
    </style>
  </defs>
  <g>
    <path class="cls-3" d="M57.3,62.84C40.57,56.42,11.57,41.35,2.78,11.94,1.68,8.26.93,4.44.55.55c3.87.35,7.69,1.07,11.35,2.13,29.55,8.57,44.92,37.5,51.51,54.21-.53.46-1.1.75-1.69.88-.22.05-.44.07-.68.07-.25,0-.48-.03-.68-.05-.2-.02-.38-.04-.55-.04-.25,0-.62.04-.96.34-.48.43-.47,1-.45,1.55,0,.41.02.88-.13,1.44-.17.62-.49,1.21-.97,1.75Z"/>
    <path class="cls-1" d="M1.11,1.11c3.63.37,7.21,1.06,10.65,2.06,13.77,4,25.94,12.96,36.19,26.65,5.8,7.76,10.93,17.05,14.86,26.92-.38.28-.78.46-1.19.55-.19.04-.38.06-.58.06-.22,0-.42-.02-.62-.05-.19-.02-.4-.04-.6-.04-.52,0-.94.15-1.29.47-.65.58-.63,1.33-.62,1.94,0,.4.02.81-.11,1.3-.12.45-.34.88-.64,1.28-9.86-3.82-19.17-8.84-26.96-14.56C16.41,37.58,7.35,25.51,3.26,11.8,2.22,8.34,1.5,4.75,1.11,1.11M0,0c.39,4.46,1.22,8.48,2.3,12.08,9.75,32.62,44.65,47.35,55.14,51.34.46-.47,1.04-1.2,1.31-2.21.37-1.39-.13-2.25.44-2.75.18-.16.39-.21.63-.21.33,0,.73.09,1.23.09.24,0,.5-.02.78-.08.99-.21,1.72-.78,2.18-1.24C59.87,46.46,44.79,11.7,12.04,2.2,8.44,1.16,4.43.36,0,0h0Z"/>
  </g>
  <g>
    <path class="cls-1" d="M47.94,63.25c-.59-.51-1.14-1.08-1.62-1.69-.67-.84-1.22-1.76-1.66-2.75.06.03.1.03.13.03h.12l.15-.18v-.12c-.31-1.1-.55-1.94-.75-2.54-.33-1-.54-2.07-.62-3.2.56.63,1.23,1.18,1.96,1.59.72.4,1.49.69,2.3.84-.37,1.14-.58,2.32-.63,3.5-.06,1.53.15,3.05.62,4.51Z"/>
    <path class="cls-1" d="M44.01,53.49c.46.43.97.81,1.51,1.12.66.37,1.36.64,2.1.81-.32,1.08-.51,2.18-.55,3.3-.05,1.26.08,2.51.38,3.73-.33-.33-.65-.69-.94-1.06-.57-.72-1.06-1.5-1.46-2.33l.14-.17.16-.21-.07-.25c-.13-.47-.45-1.67-.73-2.52-.25-.77-.43-1.58-.54-2.43M43.4,52.03c.04,1.8.38,3.14.68,4.04.3.9.64,2.17.73,2.49,0,0,0,0,0,.01,0,0,0,0,0,0-.06,0-.37-.21-.66-.42.34.93.94,2.22,1.99,3.54.82,1.03,1.67,1.78,2.36,2.29-.43-1.09-1-2.93-.91-5.26.06-1.53.39-2.8.71-3.71-.6-.09-1.52-.3-2.5-.86-1.24-.7-1.99-1.6-2.37-2.14h0Z"/>
  </g>
  <g>
    <path class="cls-1" d="M14.77,27.22c-1.27,0-2.6-1.3-3.16-3.1-.35-1.14-.33-2.31.04-3.21-.14.07-.28.15-.43.22-.18.07-.38.1-.58.1-.25,0-.52-.05-.79-.16,1.1-.68,1.51-2.47.96-4.24-.06-.18-.13-.37-.21-.53-.15-.38-.32-.69-.52-.94-.04-.07-.09-.12-.14-.18l-.09-.1c-.34-.38-.78-.6-1.17-.6-.21,0-.39.06-.54.18-.44.38-.37,1.2.16,1.83.2.23.44.42.7.54-.53-.04-1.03-.28-1.38-.67-.62-.76-.61-1.83.02-2.53.06-.06.13-.13.2-.18.35-.3.79-.46,1.25-.46.38,0,.75.11,1.07.31.87.51,1.64,1.52,2.09,2.77.46,1.26.51,2.59.15,3.57.2-.13.38-.22.58-.28.17-.05.35-.08.53-.08.41,0,.84.14,1.24.4-.03,0-.07,0-.1,0-.12,0-.23.02-.35.06-1.4.44-2.03,2.51-1.39,4.61.37,1.22,1.07,2.21,1.94,2.72l-.09-.02Z"/>
    <path class="cls-1" d="M9.1,13.16v.02c.38,0,.75.11,1.06.31.87.51,1.63,1.52,2.08,2.76.46,1.26.51,2.59.14,3.56l-.02.07.06-.04c.18-.14.36-.23.56-.29.17-.05.35-.08.53-.08.39,0,.8.13,1.18.36-.13,0-.26.03-.39.07-1.41.44-2.03,2.52-1.39,4.62.36,1.19,1.04,2.17,1.88,2.69,0,0-.02,0-.02,0-1.27,0-2.59-1.3-3.15-3.1-.35-1.14-.33-2.31.04-3.2l.03-.06-.06.04c-.13.09-.27.16-.42.23-.18.07-.38.1-.58.1-.24,0-.49-.05-.75-.14,1.08-.71,1.47-2.49.93-4.25-.05-.16-.12-.34-.21-.53-.15-.38-.32-.69-.52-.94-.04-.07-.09-.13-.14-.18-.03-.03-.06-.07-.09-.1-.34-.38-.78-.6-1.18-.6-.21,0-.4.06-.55.19-.44.38-.37,1.21.16,1.84.17.21.39.38.61.5-.49-.04-.95-.28-1.27-.65-.62-.76-.61-1.82.02-2.52.06-.06.13-.13.2-.18.34-.29.79-.46,1.25-.46v-.02M9.1,13.16c-.44,0-.89.15-1.26.46-.08.05-.14.12-.2.18-.63.71-.65,1.79-.02,2.55.36.42.87.64,1.39.66-.24-.11-.49-.29-.7-.53-.52-.62-.6-1.43-.16-1.81.15-.12.33-.18.53-.18.38,0,.82.21,1.17.59.08.1.16.18.23.28.21.27.37.58.51.94.08.16.15.34.21.53.55,1.79.12,3.57-.95,4.25.26.1.53.16.79.16.2,0,.4-.03.59-.1.15-.07.29-.14.42-.23-.36.87-.41,2.02-.04,3.22.57,1.84,1.91,3.11,3.17,3.11.03,0,.06,0,.09,0-.82-.49-1.55-1.47-1.93-2.72-.64-2.11-.02-4.16,1.38-4.6.15-.04.3-.07.45-.07-.4-.26-.83-.4-1.25-.4-.18,0-.36.03-.54.08-.22.07-.4.16-.57.3.36-.95.33-2.27-.14-3.57-.46-1.27-1.24-2.27-2.09-2.77-.32-.21-.69-.31-1.07-.31h0Z"/>
  </g>
  <g>
    <path class="cls-1" d="M27.32,14.58c-.51-.86-1.51-1.55-2.73-1.9-.53-.15-1.06-.23-1.58-.23-1.52,0-2.7.66-3.01,1.68-.04.14-.06.28-.06.42-.37-.57-.49-1.19-.33-1.74.06-.21.15-.39.29-.57-.45.16-.98.25-1.54.25-.66,0-1.36-.12-2.04-.36-1.25-.44-2.27-1.18-2.8-2.05-.48-.71-.43-1.67.11-2.32.05-.07.11-.14.18-.2.35-.33.81-.5,1.29-.5.45,0,.89.16,1.25.44.4.34.65.84.68,1.37-.1-.26-.29-.5-.53-.7-.34-.28-.75-.44-1.11-.44-.3,0-.55.11-.71.3-.35.44-.15,1.19.44,1.71l.11.09c.06.05.12.1.18.14.25.19.56.35.95.5.16.07.35.15.53.2.5.15,1,.22,1.5.22,1.25,0,2.28-.46,2.75-1.24.18.49.21.95.06,1.37-.06.15-.14.29-.22.42.49-.19,1.06-.3,1.66-.3.51,0,1.04.08,1.56.23,1.87.55,3.19,1.9,3.15,3.21Z"/>
    <path class="cls-1" d="M15.1,7.08c.44,0,.89.15,1.24.43.38.31.61.77.66,1.26-.12-.22-.3-.43-.5-.6-.34-.28-.75-.44-1.12-.44-.3,0-.56.11-.72.3-.35.44-.16,1.2.44,1.72.04.03.07.06.1.08.06.05.12.1.18.14.26.19.57.36.95.5.19.09.37.16.53.2.5.15,1,.22,1.5.22,1.24,0,2.26-.45,2.74-1.21.18.48.21.92.06,1.33-.06.15-.14.29-.22.42l-.04.06.06-.03c.48-.21,1.05-.32,1.64-.32.51,0,1.04.08,1.56.23,1.83.54,3.14,1.85,3.14,3.13-.54-.83-1.52-1.5-2.72-1.84-.53-.15-1.06-.23-1.59-.23-1.53,0-2.71.66-3.02,1.69-.04.13-.06.26-.06.39-.36-.56-.47-1.16-.31-1.71.06-.21.15-.39.28-.57l.04-.06-.06.03c-.44.17-.97.26-1.53.26-.66,0-1.36-.12-2.03-.36-1.25-.43-2.27-1.18-2.79-2.04-.47-.71-.43-1.66.11-2.31.05-.07.12-.14.18-.2.35-.32.8-.5,1.28-.5M15.1,7.06c-.47,0-.93.17-1.3.5-.06.07-.13.13-.18.21-.57.68-.57,1.65-.11,2.33.51.85,1.52,1.61,2.8,2.05.7.24,1.4.36,2.04.36.57,0,1.09-.09,1.54-.27-.13.17-.22.36-.29.57-.17.58-.03,1.21.35,1.78,0-.15.02-.3.06-.45.31-1.05,1.52-1.68,3-1.68.5,0,1.04.07,1.58.23,1.26.36,2.24,1.07,2.75,1.89.04-1.28-1.26-2.66-3.16-3.22-.54-.16-1.07-.23-1.57-.23-.61,0-1.18.11-1.65.32.09-.13.16-.27.22-.42.16-.44.11-.92-.07-1.38-.47.78-1.52,1.23-2.74,1.23-.48,0-.99-.07-1.49-.22-.18-.05-.37-.13-.53-.2-.36-.14-.67-.3-.94-.5-.11-.07-.19-.15-.29-.22-.59-.51-.79-1.25-.44-1.69.17-.2.42-.29.71-.29.36,0,.76.15,1.11.43.25.2.44.45.54.69-.03-.52-.26-1.02-.68-1.38-.37-.29-.81-.44-1.25-.44h0Z"/>
  </g>
  <path class="cls-2" d="M25.27,16.67s-4.22.17-5.69,6.89c-.37-.55-.77-1.24-1.13-2.06-.35-.8-.57-1.54-.72-2.16,0,0-1.34,3.33,1.33,7.37,0,0-1.64-.5-4.02-2.92,0,0,.95,4.44,5.76,7.4,0,0-2.45.74-4.18-.27,0,0,2.46,3.54,6.93,3.15l-2.35,1.98s3.11,1.01,6.45-1.16l-1.08,3.34s2.4-.78,4.65-4.72c0,0,.32,1.78-.59,4.38s-2.02,5.59.87,8.56c2.88,2.97,7.21,3.51,9.44,2.88,0,0-4.53.51-8.53-3.72-2.74-2.89-.07-8.39-.07-8.39,0,0,4.97-8.5,1.07-12.04-3.91-3.53-7.05.89-5.67,2.22.57.55.98.53.98.53,0,0-.38-.8.37-1.38s1.92-.21,2.56.44,1.7,2.68-.39,4.85c-2.09,2.17-5.81,2.03-8.07-.25s-3.31-5.84-1.88-9.36c1.43-3.52,3.97-5.55,3.97-5.55Z"/>
  <path class="cls-2" d="M24.8,19.61c4.03-3.91,9.19-1.34,9.19-1.34-1.27-.19-3.66.96-3.66.96,6.75.24,10.59,6.84,10.59,6.84-.86-.75-3.54-1.26-3.54-1.26,5.63,5.01,4.41,9,4.41,9-.89-1.41-2.89-3.24-2.89-3.24,1.23,2.19.62,7.02.62,7.02l-1.65-1.77c-2.34,4.59-.83,6.66-.14,7.53s3.47,3.28,5.8.96c2.33-2.32.3-5.72-1.53-4.86-1.83.87.4,2.6.4,2.6-2.8.03-3.21-2.26-2.15-3.59,1.07-1.33,3.27-1.34,5.04.35,1.77,1.7,1.43,4.76.18,6.27s-5.03,3.62-8.94.64c-3.91-2.98-2.52-7.39-.55-11.95,1.97-4.56,1.53-8.94-2.21-11.7-3.74-2.76-6.78-.9-7.81.43s-1.75,4.04.1,5.96,4.41.65,4.41.65c0,0,.32.58-.7,1.44s-2.51,1.8-5.15-.43c-2.64-2.23-3.32-7.14.18-10.53Z"/>
  <path class="cls-2" d="M58.07,57.67c-4.57-4.3-9.14-8.59-13.72-12.89.26-.24.52-.48.79-.72,4.31,4.53,8.62,9.07,12.93,13.6Z"/>
  <path class="cls-2" d="M1.34,1.32c6.77,6.46,13.53,12.91,20.3,19.37-.27.23-.54.47-.81.7C14.33,14.7,7.83,8.01,1.34,1.32Z"/>
  <g>
    <path class="cls-1" d="M54.89,50.36c-.59,0-1.3-.34-1.88-.9-1.02-.93-1.98-2.38-2.62-4-.65-1.63-.87-3.19-.58-4.17-.18.07-.35.11-.55.11-.65-.02-1.36-.4-2.04-1.06.16.07.32.11.48.11h0c.47,0,.83-.19,1.08-.54.58-.82.54-2.44-.09-4.23-.55-1.54-1.44-2.96-2.45-3.88,1.42.45,3.08,2.48,3.94,4.85.52,1.45.64,2.79.33,3.69.14-.04.29-.07.44-.09h0c.48,0,.97.2,1.52.6-.33.09-.58.33-.76.7-.42.86-.34,2.29.22,3.82.08.23.19.47.29.69.21.5.43.92.68,1.28.06.09.12.18.18.27l.11.15c.53.72,1.2,1.2,1.67,1.2.1,0,.18-.02.26-.06.12-.07.19-.19.23-.35.09-.44-.15-1.16-.62-1.82-.24-.34-.54-.66-.83-.89.58.25,1.16.72,1.59,1.31.77,1.12.89,2.34.28,2.91-.06.05-.12.1-.2.13-.19.11-.41.17-.65.17Z"/>
    <path class="cls-1" d="M46.3,31.85c1.41.48,3.02,2.48,3.85,4.8.52,1.45.64,2.79.33,3.68v.04s.03-.02.03-.02c.13-.05.27-.08.43-.1.02,0,.04,0,.05,0,.42,0,.9.19,1.43.57-.31.12-.56.35-.73.71-.42.86-.34,2.29.21,3.83.07.2.17.44.29.69.21.5.43.91.68,1.28.06.09.12.18.18.26.04.05.07.1.11.15.53.72,1.21,1.2,1.68,1.2.1,0,.19-.02.26-.06.12-.07.19-.19.23-.36.09-.44-.15-1.16-.62-1.82-.21-.3-.47-.58-.72-.8.55.24,1.07.69,1.47,1.24.77,1.11.89,2.33.28,2.9-.06.05-.12.1-.2.13-.18.11-.4.17-.64.17-.59,0-1.29-.34-1.88-.9-1.02-.93-1.98-2.38-2.62-4-.65-1.63-.87-3.18-.58-4.16v-.04s-.03.02-.03.02c-.16.08-.34.12-.53.12-.02,0-.03,0-.05,0-.58-.02-1.26-.37-1.92-1,.14.04.28.07.41.07.01,0,.02,0,.03,0,.44,0,.8-.19,1.05-.55.58-.82.55-2.45-.09-4.24-.53-1.51-1.4-2.9-2.38-3.83M46.22,31.81c.96.88,1.88,2.29,2.44,3.88.95,2.66.52,4.76-.94,4.76-.01,0-.02,0-.03,0-.16,0-.32-.04-.49-.1.68.65,1.38,1.04,2,1.06.02,0,.03,0,.05,0,.21,0,.38-.04.54-.12-.28.96-.09,2.49.58,4.17.66,1.64,1.63,3.09,2.63,4,.58.56,1.29.9,1.89.9.24,0,.46-.05.65-.17.08-.03.14-.08.2-.13.61-.57.5-1.81-.27-2.93-.44-.62-1.03-1.08-1.6-1.3.27.21.57.52.83.89.65.92.83,1.88.39,2.15-.07.04-.16.06-.25.06-.46,0-1.13-.48-1.66-1.2-.09-.14-.2-.27-.28-.42-.26-.39-.48-.81-.68-1.28-.1-.22-.21-.46-.29-.69-.82-2.27-.56-4.16.54-4.53-.51-.37-1.02-.6-1.47-.6-.02,0-.04,0-.05,0-.16.02-.3.05-.43.1.29-.86.21-2.17-.33-3.69-.87-2.4-2.55-4.42-3.95-4.84h0Z"/>
  </g>
</svg>